<?xml version="1.0" encoding="utf-8" ?>
<svg xmlns="http://www.w3.org/2000/svg" xmlns:xlink="http://www.w3.org/1999/xlink" width="1024" height="1024">
	<defs>
		<linearGradient id="gradient_0" gradientUnits="userSpaceOnUse" x1="113.90504" y1="240.87865" x2="398.6391" y2="246.71971">
			<stop offset="0" stop-color="#37CDE5"/>
			<stop offset="1" stop-color="#8564F7"/>
		</linearGradient>
	</defs>
	<path fill="url(#gradient_0)" transform="scale(2 2)" d="M218.207 106.951C276.935 90.6055 339.547 113.527 373.839 163.927C408.131 214.327 406.468 280.982 369.704 329.609C332.941 378.236 269.263 398.006 211.424 378.751C152.114 359.007 112.665 302.832 114.224 240.341C115.784 177.85 157.986 123.713 218.207 106.951ZM230.981 369.214C282.845 379.511 335.701 356.848 363.998 312.181C392.294 267.513 390.203 210.041 358.734 167.549C327.266 125.056 272.902 106.295 221.924 120.335C164.734 136.086 125.868 189.077 128.025 248.356C130.182 307.636 172.798 357.661 230.981 369.214Z"/>
	<defs>
		<linearGradient id="gradient_1" gradientUnits="userSpaceOnUse" x1="166.30956" y1="238.06218" x2="345.87518" y2="249.46542">
			<stop offset="0" stop-color="#3FC2E4"/>
			<stop offset="1" stop-color="#8171FD"/>
		</linearGradient>
	</defs>
	<path fill="url(#gradient_1)" transform="scale(2 2)" d="M250.354 153.836C299.945 150.691 342.738 188.25 346.052 237.83C349.365 287.411 311.951 330.33 262.382 333.812C212.575 337.31 169.405 299.676 166.075 249.858C162.746 200.04 200.525 156.997 250.354 153.836ZM249.711 187.262C213.493 192.877 213.72 243.338 248.051 250.108C252.449 250.975 256.91 250.609 261.278 251.373C274.371 253.665 280.094 270.194 272.575 280.649C265.958 289.849 252.389 291.646 243.305 284.988C232.483 277.057 236.599 266.191 232.401 263.117C229.671 261.119 225.115 261.629 223.241 264.571C217.425 273.699 229.751 292.43 238.211 297.425C241.881 299.591 245.923 300.209 249.711 301.954C249.732 308.453 247.868 319.981 258.302 317.423C264.574 314.104 262.002 307.744 262.433 301.954C272.608 298.475 280.74 294.641 285.783 284.496C295.037 265.882 283.801 240.903 262.255 238.37C254.227 237.426 247.645 238.956 241.212 232.796C224.947 217.219 244.329 191.27 265.131 201.791C280.705 209.668 274.1 223.548 279.917 226.776C292.378 233.693 290.63 215.556 287.812 208.412C283.368 197.149 273.941 189.982 262.433 187.262C262.463 181.561 263.484 172.351 255.234 172.55C247.651 174.089 249.845 181.481 249.711 187.262Z"/>
	<defs>
		<linearGradient id="gradient_2" gradientUnits="userSpaceOnUse" x1="72.395454" y1="393.59467" x2="183.10788" y2="366.51416">
			<stop offset="0" stop-color="#25D4E1"/>
			<stop offset="1" stop-color="#47A7ED"/>
		</linearGradient>
	</defs>
	<path fill="url(#gradient_2)" transform="scale(2 2)" d="M91.9847 343.49L120.058 343.487C125.533 343.488 131.034 343.339 136.505 343.49C140.77 348.448 145.632 352.81 149.892 357.735C145.098 357.934 140.227 357.743 135.423 357.74L106.942 357.728C99.5742 357.726 85.8911 354.717 85.6246 364.659C85.4665 370.561 85.0736 386.425 86.0709 391.363C87.2047 396.977 95.6655 395.825 99.7884 395.815L164.491 395.793L178.25 395.799C180.808 395.811 183.478 395.984 186.021 395.793C189.187 400.157 191.962 405.018 194.571 409.737L102.364 409.751C88.7001 409.753 73.5122 408.827 71.6308 391.449C71.1284 386.808 71.0146 364.071 71.8695 360.177C73.9354 350.766 82.7099 344.485 91.9847 343.49Z"/>
	<path fill="#7F6DF3" transform="scale(2 2)" d="M376.058 343.49C385.254 342.794 394.825 343.492 404.062 343.487C435.889 343.472 440.04 348.187 440.029 380.272C440.02 406.434 429.598 409.731 405.645 409.742L318.714 409.737C316.773 409.356 322.831 401.15 325.773 395.793C346.044 396.604 366.547 395.793 386.842 395.789L405.955 395.807C415.435 395.87 425.838 397.932 426.063 384.763C426.145 379.926 426.512 367.102 425.425 363.195C422.933 354.24 405.877 357.028 398.913 357.027L362.46 357.036C364.891 354.345 373.553 345.353 376.058 343.49Z"/>
	<path fill="#5C99F4" transform="scale(2 2)" d="M198.043 388.632C204.278 390.186 210.168 392.936 216.487 394.463C254.618 403.673 278.405 399.661 313.925 388.632C312.818 390.808 311.47 392.884 310.21 394.975C307.385 399.749 304.562 405.43 301.175 409.737C298.016 409.905 294.774 409.746 291.606 409.746L211.502 409.737C207.244 403.897 201.773 394.935 198.043 388.632Z"/>
</svg>
